REM DIRINDEX 1\2\5,1\2\6,1\2\7,1\2\8,1\3\9,1\3\10,1\3\11,1\4\12,1\4\13,1\4\14,1\4\15,1\4\16
REM DIRNAME cjc034,folder01,folder02,folder03,folder04,folder05,folder06,folder07,folder08,folder09,folder10,folder11,folder12,folder13,folder14,folder15
TITLE ""
FILE "1200_sec03_0960_0968.mp3" MP3
  TRACK 01 AUDIO
    TITLE "0:"
    INDEX 01 00:00:00
  TRACK 02 AUDIO
    TITLE "12:cjc034_07519"
    INDEX 01 00:00:21
  TRACK 03 AUDIO
    TITLE "0:"
    INDEX 01 00:01:32
  TRACK 04 AUDIO
    TITLE "13:cjc034_07520"
    INDEX 01 00:01:68
  TRACK 05 AUDIO
    TITLE "0:"
    INDEX 01 00:03:61
  TRACK 06 AUDIO
    TITLE "14:cjc034_07521"
    INDEX 01 00:04:21
  TRACK 07 AUDIO
    TITLE "0:"
    INDEX 01 00:05:32
  TRACK 08 AUDIO
    TITLE "15:cjc034_07522"
    INDEX 01 00:05:69
  TRACK 09 AUDIO
    TITLE "0:"
    INDEX 01 00:09:16
  TRACK 10 AUDIO
    TITLE "12:cjc034_07523"
    INDEX 01 00:10:53
  TRACK 11 AUDIO
    TITLE "0:"
    INDEX 01 00:11:70
  TRACK 12 AUDIO
    TITLE "13:cjc034_07524"
    INDEX 01 00:12:30
  TRACK 13 AUDIO
    TITLE "0:"
    INDEX 01 00:14:58
  TRACK 14 AUDIO
    TITLE "14:cjc034_07525"
    INDEX 01 00:15:19
  TRACK 15 AUDIO
    TITLE "0:"
    INDEX 01 00:16:38
  TRACK 16 AUDIO
    TITLE "15:cjc034_07526"
    INDEX 01 00:16:73
  TRACK 17 AUDIO
    TITLE "0:"
    INDEX 01 00:21:47
  TRACK 18 AUDIO
    TITLE "12:cjc034_07527"
    INDEX 01 00:23:03
  TRACK 19 AUDIO
    TITLE "0:"
    INDEX 01 00:24:20
  TRACK 20 AUDIO
    TITLE "13:cjc034_07528"
    INDEX 01 00:24:53
  TRACK 21 AUDIO
    TITLE "0:"
    INDEX 01 00:25:52
  TRACK 22 AUDIO
    TITLE "14:cjc034_07529"
    INDEX 01 00:26:11
  TRACK 23 AUDIO
    TITLE "0:"
    INDEX 01 00:27:28
  TRACK 24 AUDIO
    TITLE "15:cjc034_07530"
    INDEX 01 00:27:61
  TRACK 25 AUDIO
    TITLE "0:"
    INDEX 01 00:31:22
  TRACK 26 AUDIO
    TITLE "12:cjc034_07531"
    INDEX 01 00:32:56
  TRACK 27 AUDIO
    TITLE "0:"
    INDEX 01 00:33:62
  TRACK 28 AUDIO
    TITLE "13:cjc034_07532"
    INDEX 01 00:34:20
  TRACK 29 AUDIO
    TITLE "0:"
    INDEX 01 00:35:31
  TRACK 30 AUDIO
    TITLE "14:cjc034_07533"
    INDEX 01 00:35:64
  TRACK 31 AUDIO
    TITLE "0:"
    INDEX 01 00:36:70
  TRACK 32 AUDIO
    TITLE "15:cjc034_07534"
    INDEX 01 00:37:26
  TRACK 33 AUDIO
    TITLE "0:"
    INDEX 01 00:40:44
  TRACK 34 AUDIO
    TITLE "12:cjc034_07535"
    INDEX 01 00:42:02
  TRACK 35 AUDIO
    TITLE "0:"
    INDEX 01 00:43:19
  TRACK 36 AUDIO
    TITLE "13:cjc034_07536"
    INDEX 01 00:43:52
  TRACK 37 AUDIO
    TITLE "0:"
    INDEX 01 00:45:33
  TRACK 38 AUDIO
    TITLE "14:cjc034_07537"
    INDEX 01 00:45:67
  TRACK 39 AUDIO
    TITLE "0:"
    INDEX 01 00:47:07
  TRACK 40 AUDIO
    TITLE "15:cjc034_07538"
    INDEX 01 00:47:44
  TRACK 41 AUDIO
    TITLE "0:"
    INDEX 01 00:51:20
  TRACK 42 AUDIO
    TITLE "12:cjc034_07539"
    INDEX 01 00:52:55
  TRACK 43 AUDIO
    TITLE "0:"
    INDEX 01 00:54:01
  TRACK 44 AUDIO
    TITLE "13:cjc034_07540"
    INDEX 01 00:54:32
  TRACK 45 AUDIO
    TITLE "0:"
    INDEX 01 00:55:50
  TRACK 46 AUDIO
    TITLE "14:cjc034_07541"
    INDEX 01 00:56:06
  TRACK 47 AUDIO
    TITLE "0:"
    INDEX 01 00:57:25
  TRACK 48 AUDIO
    TITLE "15:cjc034_07542"
    INDEX 01 00:57:58
  TRACK 49 AUDIO
    TITLE "0:"
    INDEX 01 01:01:23
  TRACK 50 AUDIO
    TITLE "12:cjc034_07543"
    INDEX 01 01:02:55
  TRACK 51 AUDIO
    TITLE "0:"
    INDEX 01 01:04:07
  TRACK 52 AUDIO
    TITLE "13:cjc034_07544"
    INDEX 01 01:04:41
  TRACK 53 AUDIO
    TITLE "0:"
    INDEX 01 01:07:17
  TRACK 54 AUDIO
    TITLE "14:cjc034_07545"
    INDEX 01 01:07:51
  TRACK 55 AUDIO
    TITLE "0:"
    INDEX 01 01:09:05
  TRACK 56 AUDIO
    TITLE "15:cjc034_07546"
    INDEX 01 01:09:38
  TRACK 57 AUDIO
    TITLE "0:"
    INDEX 01 01:13:14
  TRACK 58 AUDIO
    TITLE "12:cjc034_07547"
    INDEX 01 01:14:51
  TRACK 59 AUDIO
    TITLE "0:"
    INDEX 01 01:16:11
  TRACK 60 AUDIO
    TITLE "13:cjc034_07548"
    INDEX 01 01:16:44
  TRACK 61 AUDIO
    TITLE "0:"
    INDEX 01 01:18:07
  TRACK 62 AUDIO
    TITLE "14:cjc034_07549"
    INDEX 01 01:18:41
  TRACK 63 AUDIO
    TITLE "0:"
    INDEX 01 01:20:02
  TRACK 64 AUDIO
    TITLE "15:cjc034_07550"
    INDEX 01 01:20:34
  TRACK 65 AUDIO
    TITLE "0:"
    INDEX 01 01:24:39
  TRACK 66 AUDIO
    TITLE "12:cjc034_07551"
    INDEX 01 01:25:72
  TRACK 67 AUDIO
    TITLE "0:"
    INDEX 01 01:27:22
  TRACK 68 AUDIO
    TITLE "13:cjc034_07552"
    INDEX 01 01:27:55
  TRACK 69 AUDIO
    TITLE "0:"
    INDEX 01 01:29:19
  TRACK 70 AUDIO
    TITLE "14:cjc034_07553"
    INDEX 01 01:29:54
  TRACK 71 AUDIO
    TITLE "0:"
    INDEX 01 01:31:04
  TRACK 72 AUDIO
    TITLE "15:cjc034_07554"
    INDEX 01 01:31:39
  TRACK 73 AUDIO
    TITLE "0:"
    INDEX 01 01:35:31
